SplineFontDB: 2.0
FontName: MS33558
FullName: MS33558
FamilyName: MS33558
Weight: Standard
Copyright: Created by spindler.p,U-ACA\\spindler.p,S-1-5-21-3442836429-26 with FontForge 2.0 (http://fontforge.sf.net)
Comments: 2007-10-4: Created.
Version: 001.000
ItalicAngle: 0
UnderlinePosition: -102.4
UnderlineWidth: 51.2
Ascent: 819
Descent: 205
NeedsXUIDChange: 1
XUID: [1021 51 2055917843 13095778]
FSType: 8
OS2Version: 0
OS2_WeightWidthSlopeOnly: 0
OS2_UseTypoMetrics: 1
CreationTime: 1191507056
ModificationTime: 1193070364
PfmFamily: 17
TTFWeight: 500
TTFWidth: 5
LineGap: 92
VLineGap: 0
OS2TypoAscent: 0
OS2TypoAOffset: 1
OS2TypoDescent: 0
OS2TypoDOffset: 1
OS2TypoLinegap: 92
OS2WinAscent: 0
OS2WinAOffset: 1
OS2WinDescent: 0
OS2WinDOffset: 1
HheadAscent: 0
HheadAOffset: 1
HheadDescent: 0
HheadDOffset: 1
OS2Vendor: 'PfEd'
Lookup: 258 0 0 "ms33558lookup"  {"ms33558lookup-1"  } []
LangName: 1033 
Encoding: ISO8859-1
UnicodeInterp: none
NameList: Adobe Glyph List
DisplaySize: -24
AntiAlias: 1
FitToEm: 1
WinInfo: 0 23 13
TeXData: 1 0 0 346030 173015 115343 0 1048576 115343 783286 444596 497025 792723 393216 433062 380633 303038 157286 324010 404750 52429 2506097 1059062 262144
BeginChars: 256 96
StartChar: A
Encoding: 65 65 0
Width: 685
VWidth: 0
Flags: HW
Validated: 33
Fore
20.7197 71.1396 m 2
 304.546 800.977 l 1
 324.819 821.25 365.365 821.25 385.639 800.977 c 1
 649.191 71.1396 l 2
 669.465 10.3193 588.371 -30.2266 557.962 30.5928 c 2
 497.142 172.506 l 1
 172.77 172.506 l 1
 111.95 30.5928 l 2
 81.54 -30.2266 0.447266 10.3193 20.7197 71.1396 c 2
200.67 270.18 m 1
 460.67 270.18 l 1
 360.67 550.181 l 2
 350.67 570.181 330.67 570.181 320.67 550.181 c 2
 200.67 270.18 l 1
EndSplineSet
EndChar
StartChar: P
Encoding: 80 80 1
Width: 705
VWidth: 0
Flags: HW
Fore
75.6787 62.9648 m 2
 75.6787 764.968 l 2
 75.7529 789.441 100.322 813.662 125.145 814.145 c 2
 461.499 813.676 l 2
 719.069 813.676 719.069 341.463 461.499 341.463 c 2
 183 342 l 1
 183 62.9648 l 2
 183 -22.8926 75.6787 -22.8926 75.6787 62.9648 c 2
183.086 707.455 m 1
 183.086 449.68 l 1
 419.38 449.68 l 2
 591.23 449.68 591.23 707.455 419.38 707.455 c 2
 183.086 707.455 l 1
EndSplineSet
EndChar
StartChar: B
Encoding: 66 66 2
Width: 687
VWidth: 0
Flags: HW
Validated: 33
Fore
125.798 0 m 2
 101.044 0.0400391 75.5762 25.0801 75.1074 50.4766 c 2
 75.4414 765.645 l 2
 75.4805 790.406 100.521 816.597 125.918 816.358 c 2
 451.865 816.358 l 2
 514.661 816.358 619.323 732.63 619.323 627.968 c 0
 619.323 481.442 535.594 460.51 535.594 439.577 c 0
 535.594 418.646 619.323 397.713 619.323 230.255 c 0
 619.323 115.963 514.661 0 410 0 c 0
 305.339 0 125.798 0 125.798 0 c 2
179.745 397.713 m 1
 179.745 104.661 l 1
 410 104.661 l 2
 483.264 104.661 514.661 198.856 514.661 251.188 c 0
 514.661 303.518 483.264 397.713 410 397.713 c 2
 179.745 397.713 l 1
179.745 711.697 m 1
 179.745 502.374 l 1
 420.467 502.374 l 2
 478.03 502.374 514.661 554.705 514.661 596.569 c 0
 514.661 638.435 478.03 711.697 420.467 711.697 c 2
 179.745 711.697 l 1
EndSplineSet
EndChar
StartChar: C
Encoding: 67 67 3
Width: 670
VWidth: 0
Flags: HW
Validated: 33
Fore
596.109 112.534 m 0
 554.222 49.7031 497.281 0.523438 350.677 0.523438 c 0
 204.072 0.523438 36.5234 168.072 36.5234 419.395 c 0
 36.5234 670.717 204.072 817.322 350.677 817.322 c 0
 497.281 817.322 569.088 740.279 590.031 719.336 c 1
 621.447 677.449 560.112 597.415 497.281 649.773 c 0
 486.81 657.254 455.395 691.661 350.677 691.661 c 0
 245.959 691.661 141.241 566 141.241 419.395 c 0
 141.241 272.789 245.959 126.185 350.677 126.185 c 0
 455.395 126.185 483.07 172.56 497.281 189.016 c 0
 539.169 251.847 637.996 175.365 596.109 112.534 c 0
EndSplineSet
EndChar
StartChar: D
Encoding: 68 68 4
Width: 674
VWidth: 0
Flags: HW
Validated: 33
Fore
76.2812 49.2861 m 0
 76.2812 321.176 77.3504 492.709 76.6387 764.598 c 0
 76.5714 790.286 101.29 815.669 125.759 815.669 c 0
 212.648 815.669 303.11 815.669 390 815.669 c 0
 494.573 815.669 620.061 627.438 620.061 418.292 c 0
 620.061 146.402 494.573 0 390 0 c 0
 301.979 0 213.958 0 125.938 0 c 0
 101.171 0 76.2266 24.2861 76.2812 49.2861 c 0
180.854 711.096 m 1
 180.854 522.865 180.854 292.805 180.854 104.573 c 1
 243.599 104.573 306.342 104.573 369.086 104.573 c 0
 452.744 104.573 515.488 209.146 515.488 397.377 c 0
 515.488 564.694 452.744 711.096 369.086 711.096 c 0
 306.342 711.096 243.599 711.096 180.854 711.096 c 1
EndSplineSet
EndChar
StartChar: E
Encoding: 69 69 5
Width: 674
VWidth: 0
Flags: HW
Validated: 33
Fore
75.7842 51.6074 m 2
 75.4268 767.633 l 2
 75.4912 791.085 100.912 817.752 124.904 817.633 c 2
 556.463 817.633 l 2
 640.121 817.633 640.121 713.06 556.463 713.06 c 2
 180 713.06 l 1
 180 483 l 1
 472.804 483 l 2
 556.463 483 556.463 378.427 472.804 378.427 c 2
 180 378.427 l 1
 180 106.537 l 1
 556.463 106.537 l 2
 640.121 106.537 640.121 1.96387 556.463 1.96387 c 2
 124.904 1.96387 l 2
 100.316 2.08301 75.7295 26.4883 75.7842 51.6074 c 2
EndSplineSet
EndChar
StartChar: F
Encoding: 70 70 6
Width: 655
VWidth: 0
Flags: HW
Validated: 33
Fore
76.0225 45.5469 m 2
 76.0225 765.94 l 2
 75.9014 790.759 100.831 814.104 125.76 814.977 c 2
 554.317 814.977 l 2
 637.499 814.977 637.499 711 554.317 711 c 2
 180 711 l 1
 180 482.25 l 1
 471.136 482.25 l 2
 554.317 482.25 554.317 378.273 471.136 378.273 c 2
 180 378.273 l 1
 180 45.5469 l 2
 180 -16.8389 76.0225 -16.8389 76.0225 45.5469 c 2
EndSplineSet
EndChar
StartChar: G
Encoding: 71 71 7
Width: 619
VWidth: 0
Flags: HW
Validated: 33
Fore
303.479 451.054 m 0
 490.384 451.054 l 0
 515.174 451.054 540.224 426.828 540.266 401.82 c 0
 540.266 294.427 539.562 343.66 539.745 236.267 c 0
 540 87 432.134 0 282 0 c 0
 88.6904 0 45.7334 257.745 45.7334 429.575 c 0
 45.7334 579.927 131.648 816.193 324.957 816.193 c 0
 453.83 816.193 496.787 773.235 539.745 708.799 c 0
 582.702 644.363 502 562 453.83 622.884 c 0
 416.136 670.527 389.394 708.799 324.957 708.799 c 0
 239.042 708.799 153.127 536.969 153.127 429.575 c 0
 153.127 322.182 174.605 107.394 282 107.394 c 0
 410.872 107.394 432.352 214.787 432.352 343.66 c 1
 382.234 343.66 353.596 343.66 303.479 343.66 c 0
 239.042 343.66 239.042 451.054 303.479 451.054 c 0
EndSplineSet
EndChar
StartChar: H
Encoding: 72 72 8
Width: 708
VWidth: 0
Flags: HW
Validated: 33
Fore
75.5156 769.069 m 2
 75.5156 830.966 178.678 830.966 178.678 769.069 c 2
 178.678 500.85 l 1
 529.427 500.85 l 1
 529.427 769.069 l 2
 529.427 830.966 632.588 830.966 632.588 769.069 c 2
 632.588 46.9385 l 2
 632.588 -14.958 529.427 -14.958 529.427 46.9385 c 2
 529.427 397.688 l 1
 178.678 397.688 l 1
 178.678 46.9385 l 2
 178.678 -14.958 75.5156 -14.958 75.5156 46.9385 c 2
 75.5156 769.069 l 2
EndSplineSet
EndChar
StartChar: I
Encoding: 73 73 9
Width: 254
VWidth: 0
Flags: HW
Validated: 33
Fore
75.5156 769.069 m 2
 75.5156 830.966 178.678 830.966 178.678 769.069 c 2
 178.678 46.9385 l 2
 178.678 -14.958 75.5156 -14.958 75.5156 46.9385 c 2
 75.5156 769.069 l 2
EndSplineSet
EndChar
StartChar: J
Encoding: 74 74 10
Width: 653
VWidth: 0
Flags: HW
Validated: 33
Fore
25.0361 278.571 m 0
 25.0361 364.274 132.165 342.849 132.165 278.571 c 0
 132.165 235.72 196.442 107.165 303.571 107.165 c 0
 410.7 107.165 474.979 171.442 474.979 278.571 c 0
 474.979 385.7 474.979 664.236 474.979 749.939 c 0
 474.979 835.643 582.107 839.143 582.107 749.939 c 0
 582.107 662.157 582.107 428.553 582.107 278.571 c 0
 582.107 128.591 517.83 0.0351562 303.571 0.0351562 c 0
 89.3135 0.0351562 25.0361 192.868 25.0361 278.571 c 0
EndSplineSet
EndChar
StartChar: K
Encoding: 75 75 11
Width: 688
VWidth: 0
Flags: HW
Validated: 33
Fore
75.5156 768.673 m 2
 75.5156 830.538 178.624 830.538 178.624 768.673 c 2
 178.624 510.902 l 1
 498.26 778.983 l 2
 549.813 820.227 611.679 748.051 570.436 706.808 c 2
 405.462 562.456 l 1
 395.151 541.834 395.151 521.213 405.462 500.591 c 2
 636.94 77.3311 l 2
 667.873 15.4668 575.075 -36.0879 533.832 36.0879 c 2
 312.665 449.037 l 1
 302.354 459.348 271.421 459.348 261.11 449.037 c 2
 178.624 366.55 l 1
 178.624 46.9141 l 2
 178.624 -14.9502 75.5156 -14.9502 75.5156 46.9141 c 2
 75.5156 768.673 l 2
EndSplineSet
EndChar
StartChar: L
Encoding: 76 76 12
Width: 654
VWidth: 0
Flags: HW
Validated: 33
Fore
76.0381 773.356 m 2
 76.0381 835.733 180 835.733 180 773.356 c 2
 180 108 l 1
 575.056 108 l 2
 637.433 108 637.433 4.03809 575.056 4.03809 c 2
 125.794 4.03809 l 2
 100.873 4.29883 75.6914 28.2646 76.0381 53.2725 c 2
 76.0381 773.356 l 2
EndSplineSet
EndChar
StartChar: M
Encoding: 77 77 13
Width: 765
VWidth: 0
Flags: HW
Validated: 33
Fore
75.5117 46.582 m 2
 75.5117 742.745 l 2
 75.5117 845.122 157.413 824.646 177.889 783.696 c 2
 341.692 497.04 l 2
 362.167 456.09 403.118 456.09 423.594 497.04 c 2
 587.396 783.696 l 2
 607.872 824.646 689.773 845.122 689.773 742.745 c 2
 689.773 46.582 l 2
 689.773 -14.8447 587.396 -14.8447 587.396 46.582 c 2
 587.396 558.467 l 1
 423.594 312.762 l 1
 403.118 292.286 362.167 292.286 341.692 312.762 c 1
 177.889 558.467 l 1
 177.889 46.582 l 2
 177.889 -14.8447 75.5117 -14.8447 75.5117 46.582 c 2
EndSplineSet
EndChar
StartChar: N
Encoding: 78 78 14
Width: 711
VWidth: 0
Flags: HW
Validated: 33
Fore
75.5195 47.3037 m 2
 75.5195 754.263 l 2
 75.5195 819.612 131.438 833.202 178.965 769.338 c 2
 532.444 249.515 l 1
 532.444 769.338 l 2
 532.444 831.717 636.409 831.717 636.409 769.338 c 2
 636.409 28.2188 l 2
 636.409 -1.48535 585.169 -14.8516 553.237 28.2188 c 2
 179.484 567.127 l 1
 179.484 47.3037 l 2
 179.484 -15.0752 75.5195 -15.0752 75.5195 47.3037 c 2
EndSplineSet
EndChar
StartChar: O
Encoding: 79 79 15
Width: 649
VWidth: 0
Flags: HW
Validated: 33
Fore
41.0107 408.449 m 0
 41.0107 633.098 143.634 817.41 327.437 817.41 c 0
 511.238 817.41 592.418 633.098 592.418 408.449 c 0
 592.418 183.803 511.238 0.510742 327.437 0.510742 c 0
 164.056 0.510742 41.0107 183.803 41.0107 408.449 c 0
327.437 715.298 m 0
 225.834 715.809 142.612 591.742 143.123 408.449 c 0
 143.634 225.158 225.834 103.134 327.437 102.623 c 0
 429.038 102.112 490.816 225.158 490.306 408.449 c 0
 489.795 591.742 429.038 714.787 327.437 715.298 c 0
EndSplineSet
EndChar
StartChar: Q
Encoding: 81 81 16
Width: 675
VWidth: 0
Flags: HW
Validated: 33
Fore
39.5117 425.648 m 0
 39.5117 599.749 121.441 814.814 305.783 814.814 c 0
 490.125 814.814 572.055 589.508 572.055 425.648 c 0
 571.543 286.754 540.819 245.789 510.607 179.859 c 1
 551.572 145.723 572.055 121.826 613.02 87.6885 c 0
 679.588 36.4824 602.778 -30.085 551.572 16 c 0
 517.436 43.3105 483.298 70.6201 449.16 97.9297 c 1
 408.195 56.9648 367.23 36.4824 305.783 36.4824 c 0
 120.93 40.9648 39.5117 251.548 39.5117 425.648 c 0
305.783 712.402 m 0
 203.371 712.402 141.924 569.025 141.924 425.648 c 0
 141.924 282.271 207.98 138.256 305.783 138.895 c 0
 334.186 138.895 355.809 140.381 377.472 159.377 c 1
 341.628 195.222 377.472 159.377 341.628 195.222 c 0
 290.422 246.428 362.11 312.995 403.075 272.03 c 0
 428.678 251.548 403.075 272.03 428.678 251.548 c 1
 448.648 286.754 469.643 364.715 469.643 425.648 c 0
 469.643 569.025 408.195 712.402 305.783 712.402 c 0
EndSplineSet
EndChar
StartChar: R
Encoding: 82 82 17
Width: 696
VWidth: 0
Flags: HW
Fore
75.8018 47.4082 m 2
 75.5498 768.719 l 2
 75.292 794.394 100.54 818.301 125.536 818.469 c 2
 450.913 818.469 l 2
 700.986 818.469 700.986 360 450.913 360 c 2
 430.073 360 l 1
 596.789 89.0869 l 2
 638.469 26.5684 555.11 -35.9502 513.432 26.5684 c 2
 305.036 360 l 1
 180 360 l 1
 180 47.4082 l 2
 180 -15.1104 75.8018 -15.1104 75.8018 47.4082 c 2
180.556 718.063 m 1
 180.556 466.662 l 1
 411.007 466.662 l 2
 578.608 466.662 578.608 718.063 411.007 718.063 c 2
 180.556 718.063 l 1
EndSplineSet
EndChar
StartChar: S
Encoding: 83 83 18
Width: 677
VWidth: 0
Flags: HW
Validated: 33
Fore
93.3184 627.457 m 0
 93.3184 752.844 176.909 815.537 323.194 815.537 c 0
 469.479 815.537 573.968 711.048 584.417 648.354 c 0
 594.865 585.661 511.274 564.764 490.376 627.457 c 0
 469.479 690.15 385.888 711.048 323.194 711.048 c 0
 260.501 711.048 197.807 690.15 197.807 627.457 c 0
 197.807 543.865 323.194 522.968 406.785 481.172 c 0
 490.376 439.376 615.764 397.58 615.764 209.501 c 0
 615.764 21.4199 438.132 0.522461 344.092 0.522461 c 0
 239.603 0.522461 51.5225 42.3184 51.5225 230.398 c 0
 51.5225 313.989 156.012 293.092 156.012 230.398 c 0
 156.012 146.807 281.398 105.012 344.092 105.012 c 0
 406.785 105.012 511.274 125.909 511.274 209.501 c 0
 511.274 293.092 448.58 355.785 344.092 397.58 c 0
 239.603 439.376 93.3184 502.07 93.3184 627.457 c 0
EndSplineSet
EndChar
StartChar: T
Encoding: 84 84 19
Width: 597
VWidth: 0
Flags: HW
Validated: 33
Fore
245.717 47.3193 m 2
 245.717 712.91 l 1
 79.3193 712.91 l 2
 16.9199 712.91 16.9199 816.908 79.3193 816.908 c 0
 224.917 816.908 370.516 816.908 516.113 816.908 c 0
 578.513 816.908 578.513 712.91 516.113 712.91 c 2
 349.716 712.91 l 1
 349.716 47.3193 l 2
 349.716 -15.0801 245.717 -15.0801 245.717 47.3193 c 2
EndSplineSet
EndChar
StartChar: U
Encoding: 85 85 20
Width: 701
VWidth: 0
Flags: HW
Validated: 33
Fore
68.5195 769.831 m 0
 68.5195 832.207 172.48 832.207 172.48 769.831 c 0
 172.48 596.562 172.48 423.294 172.48 250.026 c 0
 172.48 187.649 234.857 104.48 338.818 104.48 c 0
 421.987 104.48 525.948 187.649 525.948 250.026 c 0
 525.948 423.294 525.948 596.562 525.948 769.831 c 0
 525.948 832.207 629.909 832.207 629.909 769.831 c 2
 629.909 250.026 l 2
 629.909 166.857 546.74 0.519531 338.818 0.519531 c 0
 151.688 0.519531 68.5195 146.065 68.5195 250.026 c 0
 68.5195 423.294 68.5195 596.562 68.5195 769.831 c 0
EndSplineSet
EndChar
StartChar: V
Encoding: 86 86 21
Width: 600
VWidth: 0
Flags: HW
Validated: 33
Fore
41.3408 757.175 m 0
 19.9902 821.229 126.747 842.58 148.099 778.526 c 0
 190.801 629.066 233.504 458.255 276.207 308.795 c 1
 286.883 292.781 308.234 292.781 318.91 308.795 c 1
 361.612 458.255 404.315 629.066 447.019 778.526 c 0
 468.37 842.58 575.127 821.229 553.775 757.175 c 0
 489.721 522.31 425.667 287.443 361.612 52.5781 c 1
 329.586 -16.8145 260.193 -16.8145 233.504 52.5781 c 0
 169.45 287.443 105.396 522.31 41.3408 757.175 c 0
EndSplineSet
EndChar
StartChar: W
Encoding: 87 87 22
Width: 933
VWidth: 0
Flags: HW
Validated: 33
Fore
46.3496 744.985 m 0
 30.166 815.114 124.41 844.944 144.56 781.169 c 2
 256.736 308.028 l 1
 407.783 761.169 l 2
 429.361 825.903 494.096 825.903 515.674 761.169 c 2
 666.721 308.028 l 1
 785.4 782.747 l 2
 801.584 836.692 893.291 825.903 882.502 761.169 c 0
 839.346 523.81 796.189 286.45 753.033 49.0898 c 1
 731.455 -15.6445 666.721 -15.6445 645.143 49.0898 c 2
 472.518 523.81 l 1
 299.893 49.0898 l 2
 267.525 -15.6445 213.58 -15.6445 192.002 49.0898 c 0
 141.652 286.45 96.6982 507.626 46.3496 744.985 c 0
EndSplineSet
EndChar
StartChar: X
Encoding: 88 88 23
Width: 653
VWidth: 0
Flags: HW
Validated: 33
Fore
116.845 729.485 m 2
 75.4766 791.538 158.213 853.592 199.582 791.538 c 2
 323.688 554.695 l 1
 468.478 791.538 l 2
 509.846 853.592 592.583 791.538 551.215 729.485 c 2
 385.74 450.59 l 1
 592.583 88.2734 l 2
 633.951 26.2207 551.215 -35.833 509.846 26.2207 c 2
 323.688 341.514 l 1
 137.529 26.2207 l 2
 96.1602 -35.833 13.4229 26.2207 54.792 88.2734 c 2
 261.635 452.019 l 1
 116.845 729.485 l 2
EndSplineSet
EndChar
StartChar: Y
Encoding: 89 89 24
Width: 639
VWidth: 0
Flags: HW
Validated: 33
Fore
276.125 48.1982 m 2
 276.125 344.804 l 1
 43.0781 726.152 l 2
 0.706055 789.711 85.4502 853.269 127.822 789.711 c 2
 329.09 471.92 l 1
 509.172 789.711 l 2
 551.544 853.269 636.288 789.711 593.916 726.152 c 2
 382.055 344.804 l 1
 382.055 48.1982 l 2
 382.055 -15.3604 276.125 -15.3604 276.125 48.1982 c 2
EndSplineSet
EndChar
StartChar: Z
Encoding: 90 90 25
Width: 698
VWidth: 0
Flags: HW
Validated: 41
Fore
79.5225 0.773438 m 0
 25.959 0.773438 58.0977 54.3369 58.0977 54.3369 c 1
 444.289 708.346 l 1
 122.373 707.81 l 2
 57.5615 707.274 57.5615 814.401 122.373 814.937 c 2
 122.373 814.937 593.73 814.937 637.117 815.473 c 0
 663.363 814.937 636.582 772.086 636.582 772.086 c 1
 230.036 108.436 l 1
 344.305 108.436 381.973 107.9 593.73 107.9 c 0
 657.472 107.365 657.472 0.238281 593.73 0.773438 c 2
 593.73 0.773438 218.252 0.238281 79.5225 0.773438 c 0
EndSplineSet
EndChar
StartChar: zero
Encoding: 48 48 26
Width: 614
VWidth: 0
Flags: HW
Validated: 1
Fore
43.5371 408.752 m 0
 43.5371 623.603 150.962 816.967 301.357 816.967 c 0
 451.752 816.967 559.177 623.603 559.177 408.752 c 0
 559.177 193.902 473.237 0.537109 301.357 0.537109 c 0
 129.478 0.537109 43.5371 193.902 43.5371 408.752 c 0
301.357 688.058 m 0
 193.933 688.058 150.962 537.662 150.962 408.752 c 0
 150.962 279.842 193.933 107.962 301.357 107.962 c 0
 408.782 107.962 451.752 258.357 451.752 408.752 c 0
 451.752 559.147 408.782 688.058 301.357 688.058 c 0
EndSplineSet
EndChar
StartChar: one
Encoding: 49 49 27
Width: 256
VWidth: 0
Flags: HW
Validated: 33
Fore
75.5293 48.1982 m 2
 75.5293 768.517 l 2
 75.5293 832.074 181.459 832.074 181.459 768.517 c 2
 181.459 48.1982 l 2
 181.459 -15.3594 75.5293 -15.3594 75.5293 48.1982 c 2
EndSplineSet
EndChar
StartChar: two
Encoding: 50 50 28
Width: 610
VWidth: 0
Flags: HW
Validated: 33
Fore
86.8438 0.0507812 m 0
 64.7998 0.0507812 20.7129 22.0947 64.7998 110.269 c 0
 108.887 198.443 130.931 253.552 230.127 363.77 c 0
 329.322 473.988 439.541 507.053 439.541 617.271 c 0
 439.541 683.401 373.41 705.445 307.279 705.445 c 0
 241.148 705.445 208.083 661.358 197.062 595.228 c 0
 186.039 529.097 86.8438 518.075 86.8438 595.228 c 0
 86.8438 694.424 175.018 815.663 307.279 815.663 c 0
 439.541 815.663 549.759 749.532 549.759 617.271 c 0
 549.759 440.923 384.432 363.77 318.301 297.64 c 0
 252.17 231.509 175.018 110.269 219.104 110.269 c 0
 263.192 110.269 417.497 110.269 483.628 110.269 c 0
 549.759 110.269 549.759 0.0507812 483.628 0.0507812 c 0
 417.497 0.0507812 108.887 0.0507812 86.8438 0.0507812 c 0
EndSplineSet
EndChar
StartChar: three
Encoding: 51 51 29
Width: 667
VWidth: 0
Flags: HW
Validated: 33
Fore
157.878 815.414 m 0
 272.247 815.414 386.615 815.414 500.984 815.414 c 0
 543.873 815.414 565.317 751.082 522.429 708.193 c 0
 472.393 658.157 422.355 608.121 372.319 558.084 c 1
 436.652 558.084 608.205 493.752 608.205 279.311 c 0
 608.205 64.8682 458.096 0.536133 329.432 0.536133 c 0
 157.878 0.536133 82.8232 139.923 39.9346 236.422 c 0
 18.4912 279.311 104.268 338.281 136.434 279.311 c 0
 200.767 172.09 222.21 107.757 329.432 107.757 c 0
 436.652 107.757 500.984 150.646 500.984 279.311 c 0
 500.984 407.976 329.432 450.863 222.21 450.863 c 0
 179.322 450.863 179.322 515.196 222.21 558.084 c 0
 272.247 608.121 322.283 658.157 372.319 708.193 c 1
 157.878 708.193 l 0
 93.5449 708.193 93.5449 815.414 157.878 815.414 c 0
EndSplineSet
EndChar
StartChar: four
Encoding: 52 52 30
Width: 677
VWidth: 0
Flags: HW
Validated: 33
Fore
36.415 157.328 m 0
 -6.83594 157.328 14.79 243.831 25.6025 265.457 c 0
 90.4805 438.463 155.357 611.47 220.234 784.477 c 1
 263.486 849.354 328.364 806.103 306.738 741.225 c 0
 249.069 582.636 191.4 424.046 133.731 265.457 c 1
 213.026 265.457 292.321 265.457 371.615 265.457 c 1
 371.615 323.126 371.615 380.795 371.615 438.463 c 0
 371.615 503.341 479.744 503.341 479.744 438.463 c 0
 479.744 380.795 479.744 323.126 479.744 265.457 c 1
 515.788 265.457 551.831 265.457 587.874 265.457 c 0
 652.751 265.457 652.751 157.328 587.874 157.328 c 0
 551.831 157.328 515.788 157.328 479.744 157.328 c 1
 479.744 114.076 479.744 92.4502 479.744 49.1992 c 0
 479.744 -15.6787 371.615 -15.6787 371.615 49.1992 c 0
 371.615 92.4502 371.615 114.076 371.615 157.328 c 1
 256.278 157.328 151.753 157.328 36.415 157.328 c 0
EndSplineSet
EndChar
StartChar: five
Encoding: 53 53 31
Width: 639
VWidth: 0
Flags: HW
Validated: 33
Fore
94.126 815.46 m 1
 208.501 815.46 322.877 815.46 437.252 815.46 c 0
 501.588 815.46 501.588 708.233 437.252 708.233 c 0
 358.619 708.233 279.986 708.233 201.353 708.233 c 1
 201.353 651.046 201.353 593.857 201.353 536.67 c 1
 258.541 536.67 315.729 536.67 372.916 536.67 c 0
 437.252 536.67 587.369 450.889 587.369 279.326 c 0
 587.369 107.763 437.252 0.536133 287.135 0.536133 c 0
 137.017 0.536133 94.126 75.5947 72.6807 107.763 c 0
 29.79 161.376 94.126 236.436 137.017 193.544 c 0
 179.907 150.653 179.907 107.763 287.135 107.763 c 0
 394.361 107.763 480.143 172.099 480.143 279.326 c 0
 480.143 386.553 394.361 429.443 372.916 429.443 c 0
 315.729 429.443 258.541 429.443 201.353 429.443 c 1
 158.462 365.107 94.126 386.553 94.126 429.443 c 0
 94.126 558.115 94.126 686.788 94.126 815.46 c 1
EndSplineSet
EndChar
StartChar: six
Encoding: 54 54 32
Width: 666
VWidth: 0
Flags: HW
Validated: 33
Fore
35.5576 290.5 m 0
 35.5576 580.442 303.196 758.868 392.41 803.475 c 0
 481.623 848.082 526.229 758.868 459.319 714.262 c 0
 400.636 675.14 236.287 558.139 325.5 558.139 c 0
 470.472 558.139 615.442 468.926 615.442 290.5 c 0
 615.442 112.074 459.319 0.557617 325.5 0.557617 c 0
 191.681 0.557617 35.5576 89.7705 35.5576 290.5 c 0
325.5 446.623 m 0
 213.983 446.623 147.074 379.713 147.074 290.5 c 0
 147.074 201.287 213.983 112.074 325.5 112.074 c 0
 437.017 112.074 503.926 201.287 503.926 290.5 c 0
 503.926 379.713 437.017 446.623 325.5 446.623 c 0
EndSplineSet
EndChar
StartChar: seven
Encoding: 55 55 33
Width: 575
VWidth: 0
Flags: HW
Validated: 33
Fore
90.0566 815.546 m 2
 90.0566 815.546 398.096 815.546 508.11 815.546 c 0
 557.616 815.546 530.113 749.537 530.113 749.537 c 1
 266.079 23.4443 l 2
 244.076 -20.5615 145.063 1.44141 167.066 67.4502 c 2
 398.096 705.532 l 1
 90.0566 705.532 l 2
 24.0479 705.532 24.0479 815.546 90.0566 815.546 c 2
EndSplineSet
EndChar
StartChar: eight
Encoding: 56 56 34
Width: 643
VWidth: 0
Flags: HW
Validated: 1
Fore
318.786 815.275 m 4
 494.942 815.275 561.001 661.139 561.001 573.061 c 4
 561.001 484.981 494.942 440.942 494.942 418.923 c 4
 494.942 396.903 583.021 330.845 583.021 220.746 c 4
 583.021 110.648 494.942 0.550781 318.786 0.550781 c 4
 142.629 0.550781 54.5508 110.648 54.5508 220.746 c 4
 54.5508 330.845 142.629 396.903 142.629 418.923 c 4
 142.629 440.942 76.5703 484.981 76.5703 573.061 c 4
 76.5703 661.139 142.629 815.275 318.786 815.275 c 4
318.786 705.178 m 4
 230.707 705.178 186.668 639.119 186.668 573.061 c 4
 186.668 507.001 230.707 462.962 318.786 462.962 c 4
 406.864 462.962 450.903 507.001 450.903 573.061 c 4
 450.903 639.119 406.864 705.178 318.786 705.178 c 4
318.786 352.864 m 4
 230.707 352.864 164.648 286.806 164.648 220.746 c 4
 164.648 154.688 230.707 110.648 318.786 110.648 c 4
 406.864 110.648 472.923 154.688 472.923 220.746 c 4
 472.923 286.806 406.864 352.864 318.786 352.864 c 4
EndSplineSet
EndChar
StartChar: nine
Encoding: 57 57 35
Width: 677
VWidth: 0
Flags: HW
Validated: 33
Fore
192.221 4.47266 m 0
 125.453 -17.7832 69.8125 60.1133 136.581 104.625 c 0
 270.117 171.394 425.91 282.674 336.886 282.674 c 0
 181.093 282.674 47.5566 393.954 47.5566 549.747 c 0
 47.5566 705.54 158.837 816.82 336.886 816.82 c 0
 514.935 816.82 626.215 705.54 626.215 549.747 c 0
 626.215 349.442 448.166 82.3691 192.221 4.47266 c 0
336.886 705.54 m 0
 225.605 705.54 158.837 638.771 158.837 549.747 c 0
 158.837 460.723 225.605 393.954 336.886 393.954 c 0
 448.166 393.954 514.935 460.723 514.935 549.747 c 0
 514.935 638.771 448.166 705.54 336.886 705.54 c 0
EndSplineSet
EndChar
StartChar: space
Encoding: 32 32 36
Width: 301
VWidth: 0
Flags: HW
Validated: 1
Fore
93 54 m 24,0,0
EndSplineSet
EndChar
StartChar: a
Encoding: 97 97 37
Width: 685
VWidth: 0
Flags: HW
Validated: 33
Fore
20.7197 71.1396 m 2
 304.546 800.977 l 1
 324.819 821.25 365.365 821.25 385.639 800.977 c 1
 649.191 71.1396 l 2
 669.465 10.3193 588.371 -30.2266 557.962 30.5928 c 2
 497.142 172.506 l 1
 172.77 172.506 l 1
 111.95 30.5928 l 2
 81.54 -30.2266 0.447266 10.3193 20.7197 71.1396 c 2
200.67 270.18 m 1
 460.67 270.18 l 1
 360.67 550.181 l 2
 350.67 570.181 330.67 570.181 320.67 550.181 c 2
 200.67 270.18 l 1
EndSplineSet
EndChar
StartChar: b
Encoding: 98 98 38
Width: 687
VWidth: 0
Flags: HW
Validated: 33
Fore
125.798 0 m 2
 101.044 0.0400391 75.5762 25.0801 75.1074 50.4766 c 2
 75.4414 765.645 l 2
 75.4805 790.406 100.521 816.597 125.918 816.358 c 2
 451.865 816.358 l 2
 514.661 816.358 619.323 732.63 619.323 627.968 c 0
 619.323 481.442 535.594 460.51 535.594 439.577 c 0
 535.594 418.646 619.323 397.713 619.323 230.255 c 0
 619.323 115.963 514.661 0 410 0 c 0
 305.339 0 125.798 0 125.798 0 c 2
179.745 397.713 m 1
 179.745 104.661 l 1
 410 104.661 l 2
 483.264 104.661 514.661 198.856 514.661 251.188 c 0
 514.661 303.518 483.264 397.713 410 397.713 c 2
 179.745 397.713 l 1
179.745 711.697 m 1
 179.745 502.374 l 1
 420.467 502.374 l 2
 478.03 502.374 514.661 554.705 514.661 596.569 c 0
 514.661 638.435 478.03 711.697 420.467 711.697 c 2
 179.745 711.697 l 1
EndSplineSet
EndChar
StartChar: c
Encoding: 99 99 39
Width: 670
VWidth: 0
Flags: HW
Validated: 33
Fore
596.109 112.534 m 0
 554.222 49.7031 497.281 0.523438 350.677 0.523438 c 0
 204.072 0.523438 36.5234 168.072 36.5234 419.395 c 0
 36.5234 670.717 204.072 817.322 350.677 817.322 c 0
 497.281 817.322 569.088 740.279 590.031 719.336 c 1
 621.447 677.449 560.112 597.415 497.281 649.773 c 0
 486.81 657.254 455.395 691.661 350.677 691.661 c 0
 245.959 691.661 141.241 566 141.241 419.395 c 0
 141.241 272.789 245.959 126.185 350.677 126.185 c 0
 455.395 126.185 483.07 172.56 497.281 189.016 c 0
 539.169 251.847 637.996 175.365 596.109 112.534 c 0
EndSplineSet
EndChar
StartChar: d
Encoding: 100 100 40
Width: 674
VWidth: 0
Flags: HW
Validated: 33
Fore
76.2812 49.2861 m 0
 76.2812 321.176 77.3504 492.709 76.6387 764.598 c 0
 76.5714 790.286 101.29 815.669 125.759 815.669 c 0
 212.648 815.669 303.11 815.669 390 815.669 c 0
 494.573 815.669 620.061 627.438 620.061 418.292 c 0
 620.061 146.402 494.573 0 390 0 c 0
 301.979 0 213.958 0 125.938 0 c 0
 101.171 0 76.2266 24.2861 76.2812 49.2861 c 0
180.854 711.096 m 1
 180.854 522.865 180.854 292.805 180.854 104.573 c 1
 243.599 104.573 306.342 104.573 369.086 104.573 c 0
 452.744 104.573 515.488 209.146 515.488 397.377 c 0
 515.488 564.694 452.744 711.096 369.086 711.096 c 0
 306.342 711.096 243.599 711.096 180.854 711.096 c 1
EndSplineSet
EndChar
StartChar: e
Encoding: 101 101 41
Width: 674
VWidth: 0
Flags: HW
Validated: 33
Fore
75.7842 51.6074 m 2
 75.4268 767.633 l 2
 75.4912 791.085 100.912 817.752 124.904 817.633 c 2
 556.463 817.633 l 2
 640.121 817.633 640.121 713.06 556.463 713.06 c 2
 180 713.06 l 1
 180 483 l 1
 472.804 483 l 2
 556.463 483 556.463 378.427 472.804 378.427 c 2
 180 378.427 l 1
 180 106.537 l 1
 556.463 106.537 l 2
 640.121 106.537 640.121 1.96387 556.463 1.96387 c 2
 124.904 1.96387 l 2
 100.316 2.08301 75.7295 26.4883 75.7842 51.6074 c 2
EndSplineSet
EndChar
StartChar: f
Encoding: 102 102 42
Width: 655
VWidth: 0
Flags: HW
Validated: 33
Fore
76.0225 45.5469 m 2
 76.0225 765.94 l 2
 75.9014 790.759 100.831 814.104 125.76 814.977 c 2
 554.317 814.977 l 2
 637.499 814.977 637.499 711 554.317 711 c 2
 180 711 l 1
 180 482.25 l 1
 471.136 482.25 l 2
 554.317 482.25 554.317 378.273 471.136 378.273 c 2
 180 378.273 l 1
 180 45.5469 l 2
 180 -16.8389 76.0225 -16.8389 76.0225 45.5469 c 2
EndSplineSet
EndChar
StartChar: g
Encoding: 103 103 43
Width: 619
VWidth: 0
Flags: HW
Validated: 33
Fore
303.479 451.054 m 0
 490.384 451.054 l 0
 515.174 451.054 540.224 426.828 540.266 401.82 c 0
 540.266 294.427 539.562 343.66 539.745 236.267 c 0
 540 87 432.134 0 282 0 c 0
 88.6904 0 45.7334 257.745 45.7334 429.575 c 0
 45.7334 579.927 131.648 816.193 324.957 816.193 c 0
 453.83 816.193 496.787 773.235 539.745 708.799 c 0
 582.702 644.363 502 562 453.83 622.884 c 0
 416.136 670.527 389.394 708.799 324.957 708.799 c 0
 239.042 708.799 153.127 536.969 153.127 429.575 c 0
 153.127 322.182 174.605 107.394 282 107.394 c 0
 410.872 107.394 432.352 214.787 432.352 343.66 c 1
 382.234 343.66 353.596 343.66 303.479 343.66 c 0
 239.042 343.66 239.042 451.054 303.479 451.054 c 0
EndSplineSet
EndChar
StartChar: h
Encoding: 104 104 44
Width: 708
VWidth: 0
Flags: HW
Validated: 33
Fore
75.5156 769.069 m 2
 75.5156 830.966 178.678 830.966 178.678 769.069 c 2
 178.678 500.85 l 1
 529.427 500.85 l 1
 529.427 769.069 l 2
 529.427 830.966 632.588 830.966 632.588 769.069 c 2
 632.588 46.9385 l 2
 632.588 -14.958 529.427 -14.958 529.427 46.9385 c 2
 529.427 397.688 l 1
 178.678 397.688 l 1
 178.678 46.9385 l 2
 178.678 -14.958 75.5156 -14.958 75.5156 46.9385 c 2
 75.5156 769.069 l 2
EndSplineSet
EndChar
StartChar: i
Encoding: 105 105 45
Width: 254
VWidth: 0
Flags: HW
Validated: 33
Fore
75.5156 769.069 m 2
 75.5156 830.966 178.678 830.966 178.678 769.069 c 2
 178.678 46.9385 l 2
 178.678 -14.958 75.5156 -14.958 75.5156 46.9385 c 2
 75.5156 769.069 l 2
EndSplineSet
EndChar
StartChar: j
Encoding: 106 106 46
Width: 653
VWidth: 0
Flags: HW
Validated: 33
Fore
25.0361 278.571 m 0
 25.0361 364.274 132.165 342.849 132.165 278.571 c 0
 132.165 235.72 196.442 107.165 303.571 107.165 c 0
 410.7 107.165 474.979 171.442 474.979 278.571 c 0
 474.979 385.7 474.979 664.236 474.979 749.939 c 0
 474.979 835.643 582.107 839.143 582.107 749.939 c 0
 582.107 662.157 582.107 428.553 582.107 278.571 c 0
 582.107 128.591 517.83 0.0351562 303.571 0.0351562 c 0
 89.3135 0.0351562 25.0361 192.868 25.0361 278.571 c 0
EndSplineSet
EndChar
StartChar: k
Encoding: 107 107 47
Width: 688
VWidth: 0
Flags: HW
Validated: 33
Fore
75.5156 768.673 m 2
 75.5156 830.538 178.624 830.538 178.624 768.673 c 2
 178.624 510.902 l 1
 498.26 778.983 l 2
 549.813 820.227 611.679 748.051 570.436 706.808 c 2
 405.462 562.456 l 1
 395.151 541.834 395.151 521.213 405.462 500.591 c 2
 636.94 77.3311 l 2
 667.873 15.4668 575.075 -36.0879 533.832 36.0879 c 2
 312.665 449.037 l 1
 302.354 459.348 271.421 459.348 261.11 449.037 c 2
 178.624 366.55 l 1
 178.624 46.9141 l 2
 178.624 -14.9502 75.5156 -14.9502 75.5156 46.9141 c 2
 75.5156 768.673 l 2
EndSplineSet
EndChar
StartChar: l
Encoding: 108 108 48
Width: 654
VWidth: 0
Flags: HW
Validated: 33
Fore
76.0381 773.356 m 2
 76.0381 835.733 180 835.733 180 773.356 c 2
 180 108 l 1
 575.056 108 l 2
 637.433 108 637.433 4.03809 575.056 4.03809 c 2
 125.794 4.03809 l 2
 100.873 4.29883 75.6914 28.2646 76.0381 53.2725 c 2
 76.0381 773.356 l 2
EndSplineSet
EndChar
StartChar: m
Encoding: 109 109 49
Width: 765
VWidth: 0
Flags: HW
Validated: 33
Fore
75.5117 46.582 m 2
 75.5117 742.745 l 2
 75.5117 845.122 157.413 824.646 177.889 783.696 c 2
 341.692 497.04 l 2
 362.167 456.09 403.118 456.09 423.594 497.04 c 2
 587.396 783.696 l 2
 607.872 824.646 689.773 845.122 689.773 742.745 c 2
 689.773 46.582 l 2
 689.773 -14.8447 587.396 -14.8447 587.396 46.582 c 2
 587.396 558.467 l 1
 423.594 312.762 l 1
 403.118 292.286 362.167 292.286 341.692 312.762 c 1
 177.889 558.467 l 1
 177.889 46.582 l 2
 177.889 -14.8447 75.5117 -14.8447 75.5117 46.582 c 2
EndSplineSet
EndChar
StartChar: n
Encoding: 110 110 50
Width: 711
VWidth: 0
Flags: HW
Validated: 33
Fore
75.5195 47.3037 m 2
 75.5195 754.263 l 2
 75.5195 819.612 131.438 833.202 178.965 769.338 c 2
 532.444 249.515 l 1
 532.444 769.338 l 2
 532.444 831.717 636.409 831.717 636.409 769.338 c 2
 636.409 28.2188 l 2
 636.409 -1.48535 585.169 -14.8516 553.237 28.2188 c 2
 179.484 567.127 l 1
 179.484 47.3037 l 2
 179.484 -15.0752 75.5195 -15.0752 75.5195 47.3037 c 2
EndSplineSet
EndChar
StartChar: o
Encoding: 111 111 51
Width: 649
VWidth: 0
Flags: HW
Validated: 33
Fore
41.0107 408.449 m 0
 41.0107 633.098 143.634 817.41 327.437 817.41 c 0
 511.238 817.41 592.418 633.098 592.418 408.449 c 0
 592.418 183.803 511.238 0.510742 327.437 0.510742 c 0
 164.056 0.510742 41.0107 183.803 41.0107 408.449 c 0
327.437 715.298 m 0
 225.834 715.809 142.612 591.742 143.123 408.449 c 0
 143.634 225.158 225.834 103.134 327.437 102.623 c 0
 429.038 102.112 490.816 225.158 490.306 408.449 c 0
 489.795 591.742 429.038 714.787 327.437 715.298 c 0
EndSplineSet
EndChar
StartChar: p
Encoding: 112 112 52
Width: 705
VWidth: 0
Flags: HW
Fore
75.6787 62.9648 m 2
 75.6787 764.968 l 2
 75.7529 789.441 100.322 813.662 125.145 814.145 c 2
 461.499 813.676 l 2
 719.069 813.676 719.069 341.463 461.499 341.463 c 2
 183 342 l 1
 183 62.9648 l 2
 183 -22.8926 75.6787 -22.8926 75.6787 62.9648 c 2
183.086 707.455 m 1
 183.086 449.68 l 1
 419.38 449.68 l 2
 591.23 449.68 591.23 707.455 419.38 707.455 c 2
 183.086 707.455 l 1
EndSplineSet
EndChar
StartChar: q
Encoding: 113 113 53
Width: 675
VWidth: 0
Flags: HW
Validated: 33
Fore
39.5117 425.648 m 0
 39.5117 599.749 121.441 814.814 305.783 814.814 c 0
 490.125 814.814 572.055 589.508 572.055 425.648 c 0
 571.543 286.754 540.819 245.789 510.607 179.859 c 1
 551.572 145.723 572.055 121.826 613.02 87.6885 c 0
 679.588 36.4824 602.778 -30.085 551.572 16 c 0
 517.436 43.3105 483.298 70.6201 449.16 97.9297 c 1
 408.195 56.9648 367.23 36.4824 305.783 36.4824 c 0
 120.93 40.9648 39.5117 251.548 39.5117 425.648 c 0
305.783 712.402 m 0
 203.371 712.402 141.924 569.025 141.924 425.648 c 0
 141.924 282.271 207.98 138.256 305.783 138.895 c 0
 334.186 138.895 355.809 140.381 377.472 159.377 c 1
 341.628 195.222 377.472 159.377 341.628 195.222 c 0
 290.422 246.428 362.11 312.995 403.075 272.03 c 0
 428.678 251.548 403.075 272.03 428.678 251.548 c 1
 448.648 286.754 469.643 364.715 469.643 425.648 c 0
 469.643 569.025 408.195 712.402 305.783 712.402 c 0
EndSplineSet
EndChar
StartChar: r
Encoding: 114 114 54
Width: 696
VWidth: 0
Flags: HW
Fore
75.8018 47.4082 m 2
 75.5498 768.719 l 2
 75.292 794.394 100.54 818.301 125.536 818.469 c 2
 450.913 818.469 l 2
 700.986 818.469 700.986 360 450.913 360 c 2
 430.073 360 l 1
 596.789 89.0869 l 2
 638.469 26.5684 555.11 -35.9502 513.432 26.5684 c 2
 305.036 360 l 1
 180 360 l 1
 180 47.4082 l 2
 180 -15.1104 75.8018 -15.1104 75.8018 47.4082 c 2
180.556 718.063 m 1
 180.556 466.662 l 1
 411.007 466.662 l 2
 578.608 466.662 578.608 718.063 411.007 718.063 c 2
 180.556 718.063 l 1
EndSplineSet
EndChar
StartChar: s
Encoding: 115 115 55
Width: 677
VWidth: 0
Flags: HW
Validated: 33
Fore
93.3184 627.457 m 0
 93.3184 752.844 176.909 815.537 323.194 815.537 c 0
 469.479 815.537 573.968 711.048 584.417 648.354 c 0
 594.865 585.661 511.274 564.764 490.376 627.457 c 0
 469.479 690.15 385.888 711.048 323.194 711.048 c 0
 260.501 711.048 197.807 690.15 197.807 627.457 c 0
 197.807 543.865 323.194 522.968 406.785 481.172 c 0
 490.376 439.376 615.764 397.58 615.764 209.501 c 0
 615.764 21.4199 438.132 0.522461 344.092 0.522461 c 0
 239.603 0.522461 51.5225 42.3184 51.5225 230.398 c 0
 51.5225 313.989 156.012 293.092 156.012 230.398 c 0
 156.012 146.807 281.398 105.012 344.092 105.012 c 0
 406.785 105.012 511.274 125.909 511.274 209.501 c 0
 511.274 293.092 448.58 355.785 344.092 397.58 c 0
 239.603 439.376 93.3184 502.07 93.3184 627.457 c 0
EndSplineSet
EndChar
StartChar: t
Encoding: 116 116 56
Width: 597
VWidth: 0
Flags: HW
Validated: 33
Fore
245.717 47.3193 m 2
 245.717 712.91 l 1
 79.3193 712.91 l 2
 16.9199 712.91 16.9199 816.908 79.3193 816.908 c 0
 224.917 816.908 370.516 816.908 516.113 816.908 c 0
 578.513 816.908 578.513 712.91 516.113 712.91 c 2
 349.716 712.91 l 1
 349.716 47.3193 l 2
 349.716 -15.0801 245.717 -15.0801 245.717 47.3193 c 2
EndSplineSet
EndChar
StartChar: u
Encoding: 117 117 57
Width: 701
VWidth: 0
Flags: HW
Validated: 33
Fore
68.5195 769.831 m 0
 68.5195 832.207 172.48 832.207 172.48 769.831 c 0
 172.48 596.562 172.48 423.294 172.48 250.026 c 0
 172.48 187.649 234.857 104.48 338.818 104.48 c 0
 421.987 104.48 525.948 187.649 525.948 250.026 c 0
 525.948 423.294 525.948 596.562 525.948 769.831 c 0
 525.948 832.207 629.909 832.207 629.909 769.831 c 2
 629.909 250.026 l 2
 629.909 166.857 546.74 0.519531 338.818 0.519531 c 0
 151.688 0.519531 68.5195 146.065 68.5195 250.026 c 0
 68.5195 423.294 68.5195 596.562 68.5195 769.831 c 0
EndSplineSet
EndChar
StartChar: v
Encoding: 118 118 58
Width: 600
VWidth: 0
Flags: HW
Validated: 33
Fore
41.3408 757.175 m 0
 19.9902 821.229 126.747 842.58 148.099 778.526 c 0
 190.801 629.066 233.504 458.255 276.207 308.795 c 1
 286.883 292.781 308.234 292.781 318.91 308.795 c 1
 361.612 458.255 404.315 629.066 447.019 778.526 c 0
 468.37 842.58 575.127 821.229 553.775 757.175 c 0
 489.721 522.31 425.667 287.443 361.612 52.5781 c 1
 329.586 -16.8145 260.193 -16.8145 233.504 52.5781 c 0
 169.45 287.443 105.396 522.31 41.3408 757.175 c 0
EndSplineSet
EndChar
StartChar: w
Encoding: 119 119 59
Width: 933
VWidth: 0
Flags: HW
Validated: 33
Fore
46.3496 744.985 m 0
 30.166 815.114 124.41 844.944 144.56 781.169 c 2
 256.736 308.028 l 1
 407.783 761.169 l 2
 429.361 825.903 494.096 825.903 515.674 761.169 c 2
 666.721 308.028 l 1
 785.4 782.747 l 2
 801.584 836.692 893.291 825.903 882.502 761.169 c 0
 839.346 523.81 796.189 286.45 753.033 49.0898 c 1
 731.455 -15.6445 666.721 -15.6445 645.143 49.0898 c 2
 472.518 523.81 l 1
 299.893 49.0898 l 2
 267.525 -15.6445 213.58 -15.6445 192.002 49.0898 c 0
 141.652 286.45 96.6982 507.626 46.3496 744.985 c 0
EndSplineSet
EndChar
StartChar: x
Encoding: 120 120 60
Width: 653
VWidth: 0
Flags: HW
Validated: 33
Fore
116.845 729.485 m 2
 75.4766 791.538 158.213 853.592 199.582 791.538 c 2
 323.688 554.695 l 1
 468.478 791.538 l 2
 509.846 853.592 592.583 791.538 551.215 729.485 c 2
 385.74 450.59 l 1
 592.583 88.2734 l 2
 633.951 26.2207 551.215 -35.833 509.846 26.2207 c 2
 323.688 341.514 l 1
 137.529 26.2207 l 2
 96.1602 -35.833 13.4229 26.2207 54.792 88.2734 c 2
 261.635 452.019 l 1
 116.845 729.485 l 2
EndSplineSet
EndChar
StartChar: y
Encoding: 121 121 61
Width: 639
VWidth: 0
Flags: HW
Validated: 33
Fore
276.125 48.1982 m 2
 276.125 344.804 l 1
 43.0781 726.152 l 2
 0.706055 789.711 85.4502 853.269 127.822 789.711 c 2
 329.09 471.92 l 1
 509.172 789.711 l 2
 551.544 853.269 636.288 789.711 593.916 726.152 c 2
 382.055 344.804 l 1
 382.055 48.1982 l 2
 382.055 -15.3604 276.125 -15.3604 276.125 48.1982 c 2
EndSplineSet
EndChar
StartChar: z
Encoding: 122 122 62
Width: 698
VWidth: 0
Flags: HW
Validated: 41
Fore
79.5225 0.773438 m 0
 25.959 0.773438 58.0977 54.3369 58.0977 54.3369 c 1
 444.289 708.346 l 1
 122.373 707.81 l 2
 57.5615 707.274 57.5615 814.401 122.373 814.937 c 2
 122.373 814.937 593.73 814.937 637.117 815.473 c 0
 663.363 814.937 636.582 772.086 636.582 772.086 c 1
 230.036 108.436 l 1
 344.305 108.436 381.973 107.9 593.73 107.9 c 0
 657.472 107.365 657.472 0.238281 593.73 0.773438 c 2
 593.73 0.773438 218.252 0.238281 79.5225 0.773438 c 0
EndSplineSet
EndChar
StartChar: uni0000
Encoding: 0 0 63
Width: 301
VWidth: 0
Flags: HW
Validated: 1
Fore
93 54 m 24,0,0
EndSplineSet
EndChar
StartChar: uni0001
Encoding: 1 1 64
Width: 301
VWidth: 0
Flags: HW
Validated: 1
Fore
93 54 m 24,0,0
EndSplineSet
EndChar
StartChar: uni0002
Encoding: 2 2 65
Width: 301
VWidth: 0
Flags: HW
Validated: 1
Fore
93 54 m 24,0,0
EndSplineSet
EndChar
StartChar: uni0003
Encoding: 3 3 66
Width: 301
VWidth: 0
Flags: HW
Validated: 1
Fore
93 54 m 24,0,0
EndSplineSet
EndChar
StartChar: uni0004
Encoding: 4 4 67
Width: 301
VWidth: 0
Flags: HW
Validated: 1
Fore
93 54 m 24,0,0
EndSplineSet
EndChar
StartChar: uni0005
Encoding: 5 5 68
Width: 301
VWidth: 0
Flags: HW
Validated: 1
Fore
93 54 m 24,0,0
EndSplineSet
EndChar
StartChar: uni0006
Encoding: 6 6 69
Width: 301
VWidth: 0
Flags: HW
Validated: 1
Fore
93 54 m 24,0,0
EndSplineSet
EndChar
StartChar: uni0007
Encoding: 7 7 70
Width: 301
VWidth: 0
Flags: HW
Validated: 1
Fore
93 54 m 24,0,0
EndSplineSet
EndChar
StartChar: uni0008
Encoding: 8 8 71
Width: 301
VWidth: 0
Flags: HW
Validated: 1
Fore
93 54 m 24,0,0
EndSplineSet
EndChar
StartChar: uni0009
Encoding: 9 9 72
Width: 301
VWidth: 0
Flags: HW
Validated: 1
Fore
93 54 m 24,0,0
EndSplineSet
EndChar
StartChar: uni000A
Encoding: 10 10 73
Width: 301
VWidth: 0
Flags: HW
Validated: 1
Fore
93 54 m 24,0,0
EndSplineSet
EndChar
StartChar: uni000B
Encoding: 11 11 74
Width: 301
VWidth: 0
Flags: HW
Validated: 1
Fore
93 54 m 24,0,0
EndSplineSet
EndChar
StartChar: uni000C
Encoding: 12 12 75
Width: 301
VWidth: 0
Flags: HW
Validated: 1
Fore
93 54 m 24,0,0
EndSplineSet
EndChar
StartChar: uni000D
Encoding: 13 13 76
Width: 301
VWidth: 0
Flags: HW
Validated: 1
Fore
93 54 m 24,0,0
EndSplineSet
EndChar
StartChar: uni000E
Encoding: 14 14 77
Width: 301
VWidth: 0
Flags: HW
Validated: 1
Fore
93 54 m 24,0,0
EndSplineSet
EndChar
StartChar: uni000F
Encoding: 15 15 78
Width: 301
VWidth: 0
Flags: HW
Validated: 1
Fore
93 54 m 24,0,0
EndSplineSet
EndChar
StartChar: uni0010
Encoding: 16 16 79
Width: 301
VWidth: 0
Flags: HW
Validated: 1
Fore
93 54 m 24,0,0
EndSplineSet
EndChar
StartChar: uni0011
Encoding: 17 17 80
Width: 301
VWidth: 0
Flags: HW
Validated: 1
Fore
93 54 m 24,0,0
EndSplineSet
EndChar
StartChar: uni0012
Encoding: 18 18 81
Width: 301
VWidth: 0
Flags: HW
Validated: 1
Fore
93 54 m 24,0,0
EndSplineSet
EndChar
StartChar: uni0013
Encoding: 19 19 82
Width: 301
VWidth: 0
Flags: HW
Validated: 1
Fore
93 54 m 24,0,0
EndSplineSet
EndChar
StartChar: uni0014
Encoding: 20 20 83
Width: 301
VWidth: 0
Flags: HW
Validated: 1
Fore
93 54 m 24,0,0
EndSplineSet
EndChar
StartChar: uni0015
Encoding: 21 21 84
Width: 301
VWidth: 0
Flags: HW
Validated: 1
Fore
93 54 m 24,0,0
EndSplineSet
EndChar
StartChar: uni0016
Encoding: 22 22 85
Width: 301
VWidth: 0
Flags: HW
Validated: 1
Fore
93 54 m 24,0,0
EndSplineSet
EndChar
StartChar: uni0017
Encoding: 23 23 86
Width: 301
VWidth: 0
Flags: HW
Validated: 1
Fore
93 54 m 24,0,0
EndSplineSet
EndChar
StartChar: uni0018
Encoding: 24 24 87
Width: 301
VWidth: 0
Flags: HW
Validated: 1
Fore
93 54 m 24,0,0
EndSplineSet
EndChar
StartChar: uni0019
Encoding: 25 25 88
Width: 301
VWidth: 0
Flags: HW
Validated: 1
Fore
93 54 m 24,0,0
EndSplineSet
EndChar
StartChar: uni001A
Encoding: 26 26 89
Width: 301
VWidth: 0
Flags: HW
Validated: 1
Fore
93 54 m 24,0,0
EndSplineSet
EndChar
StartChar: uni001B
Encoding: 27 27 90
Width: 301
VWidth: 0
Flags: HW
Validated: 1
Fore
93 54 m 24,0,0
EndSplineSet
EndChar
StartChar: uni001C
Encoding: 28 28 91
Width: 301
VWidth: 0
Flags: HW
Validated: 1
Fore
93 54 m 24,0,0
EndSplineSet
EndChar
StartChar: uni001D
Encoding: 29 29 92
Width: 301
VWidth: 0
Flags: HW
Validated: 1
Fore
93 54 m 24,0,0
EndSplineSet
EndChar
StartChar: uni001E
Encoding: 30 30 93
Width: 301
VWidth: 0
Flags: HW
Validated: 1
Fore
93 54 m 24,0,0
EndSplineSet
EndChar
StartChar: uni001F
Encoding: 31 31 94
Width: 301
VWidth: 0
Flags: HW
Validated: 1
Fore
93 54 m 24,0,0
EndSplineSet
EndChar
StartChar: slash
Encoding: 47 47 95
Width: 541
VWidth: 0
Flags: HW
Validated: 33
Fore
373.406 788.021 m 2
 397.948 845.368 493.525 804.464 468.983 747.117 c 2
 167.359 41.999 l 2
 135.671 -27.9834 40.7793 14.0127 72 84 c 2
 373.406 788.021 l 2
EndSplineSet
EndChar
